<mxfile host="app.diagrams.net" modified="2024-03-25T19:14:59.115Z" agent="Mozilla/5.0 (X11; Linux x86_64) AppleWebKit/537.36 (KHTML, like Gecko) Chrome/122.0.0.0 Safari/537.36" etag="HFHXlTKP0Te5cK6bsitO" version="24.1.0" type="device">
  <diagram name="PÃ¡gina-1" id="3oBJ_l1AINXK33-tfpuU">
    <mxGraphModel dx="954" dy="640" grid="1" gridSize="10" guides="1" tooltips="1" connect="1" arrows="1" fold="1" page="1" pageScale="1" pageWidth="827" pageHeight="1169" math="0" shadow="0">
      <root>
        <mxCell id="0" />
        <mxCell id="1" parent="0" />
        <mxCell id="BW_88uhByHTbwWjWVp8O-1" value="Juliet Monitor" style="swimlane;childLayout=stackLayout;horizontal=1;startSize=50;horizontalStack=0;rounded=1;fontSize=14;fontStyle=0;strokeWidth=2;resizeParent=0;resizeLast=1;shadow=0;dashed=0;align=center;arcSize=4;whiteSpace=wrap;html=1;fillColor=#CCCCCC;" vertex="1" parent="1">
          <mxGeometry x="90" y="310" width="160" height="120" as="geometry" />
        </mxCell>
        <mxCell id="BW_88uhByHTbwWjWVp8O-2" value="+ Get PIDs matching target&lt;br&gt;+ Acumulate Energy&lt;br&gt;+ Scrape Interval resolution" style="align=left;strokeColor=none;fillColor=none;spacingLeft=4;fontSize=12;verticalAlign=top;resizable=0;rotatable=0;part=1;html=1;" vertex="1" parent="BW_88uhByHTbwWjWVp8O-1">
          <mxGeometry y="50" width="160" height="70" as="geometry" />
        </mxCell>
        <mxCell id="BW_88uhByHTbwWjWVp8O-4" style="edgeStyle=orthogonalEdgeStyle;rounded=0;orthogonalLoop=1;jettySize=auto;html=1;exitX=0.5;exitY=1;exitDx=0;exitDy=0;entryX=0.5;entryY=0;entryDx=0;entryDy=0;strokeWidth=2;" edge="1" parent="1" source="BW_88uhByHTbwWjWVp8O-3" target="BW_88uhByHTbwWjWVp8O-1">
          <mxGeometry relative="1" as="geometry" />
        </mxCell>
        <mxCell id="BW_88uhByHTbwWjWVp8O-3" value="Target Process Name" style="text;strokeColor=none;align=center;fillColor=none;html=1;verticalAlign=middle;whiteSpace=wrap;rounded=0;shadow=1;" vertex="1" parent="1">
          <mxGeometry x="110" y="250" width="120" height="30" as="geometry" />
        </mxCell>
        <mxCell id="BW_88uhByHTbwWjWVp8O-34" value="GNU/Linux Interfaces" style="swimlane;startSize=20;horizontal=1;containerType=tree;newEdgeStyle={&quot;edgeStyle&quot;:&quot;elbowEdgeStyle&quot;,&quot;startArrow&quot;:&quot;none&quot;,&quot;endArrow&quot;:&quot;none&quot;};strokeWidth=2;rounded=1;" vertex="1" parent="1">
          <mxGeometry x="290" y="260" width="260" height="220" as="geometry" />
        </mxCell>
        <UserObject label="System CPU Metrics" treeRoot="1" id="BW_88uhByHTbwWjWVp8O-37">
          <mxCell style="whiteSpace=wrap;html=1;align=center;treeFolding=1;treeMoving=1;newEdgeStyle={&quot;edgeStyle&quot;:&quot;elbowEdgeStyle&quot;,&quot;startArrow&quot;:&quot;none&quot;,&quot;endArrow&quot;:&quot;none&quot;};strokeWidth=2;gradientColor=none;fillColor=#CCCCCC;fillStyle=auto;" vertex="1" parent="BW_88uhByHTbwWjWVp8O-34">
            <mxGeometry x="80" y="40" width="120" height="60" as="geometry" />
          </mxCell>
        </UserObject>
        <mxCell id="BW_88uhByHTbwWjWVp8O-38" value="Process Stats" style="whiteSpace=wrap;html=1;align=center;verticalAlign=middle;treeFolding=1;treeMoving=1;newEdgeStyle={&quot;edgeStyle&quot;:&quot;elbowEdgeStyle&quot;,&quot;startArrow&quot;:&quot;none&quot;,&quot;endArrow&quot;:&quot;none&quot;};strokeWidth=2;fillColor=#CCCCCC;" vertex="1" parent="BW_88uhByHTbwWjWVp8O-34">
          <mxGeometry x="20" y="130" width="100" height="70" as="geometry" />
        </mxCell>
        <mxCell id="BW_88uhByHTbwWjWVp8O-39" value="Intel RAPL Interface" style="whiteSpace=wrap;html=1;align=center;verticalAlign=middle;treeFolding=1;treeMoving=1;newEdgeStyle={&quot;edgeStyle&quot;:&quot;elbowEdgeStyle&quot;,&quot;startArrow&quot;:&quot;none&quot;,&quot;endArrow&quot;:&quot;none&quot;};strokeWidth=2;fillColor=#CCCCCC;" vertex="1" parent="BW_88uhByHTbwWjWVp8O-34">
          <mxGeometry x="150" y="130" width="100" height="70" as="geometry" />
        </mxCell>
        <mxCell id="BW_88uhByHTbwWjWVp8O-46" style="edgeStyle=orthogonalEdgeStyle;rounded=0;orthogonalLoop=1;jettySize=auto;html=1;entryX=0;entryY=0.5;entryDx=0;entryDy=0;strokeWidth=2;" edge="1" parent="1" target="BW_88uhByHTbwWjWVp8O-37">
          <mxGeometry relative="1" as="geometry">
            <mxPoint x="250" y="370" as="sourcePoint" />
            <Array as="points">
              <mxPoint x="250" y="330" />
            </Array>
          </mxGeometry>
        </mxCell>
        <mxCell id="BW_88uhByHTbwWjWVp8O-47" style="edgeStyle=orthogonalEdgeStyle;rounded=0;orthogonalLoop=1;jettySize=auto;html=1;exitX=1;exitY=0;exitDx=0;exitDy=0;strokeWidth=2;" edge="1" parent="1" source="BW_88uhByHTbwWjWVp8O-2">
          <mxGeometry relative="1" as="geometry">
            <mxPoint x="500" y="390" as="targetPoint" />
            <Array as="points">
              <mxPoint x="250" y="370" />
              <mxPoint x="500" y="370" />
              <mxPoint x="500" y="390" />
            </Array>
          </mxGeometry>
        </mxCell>
        <mxCell id="BW_88uhByHTbwWjWVp8O-48" style="edgeStyle=orthogonalEdgeStyle;rounded=0;orthogonalLoop=1;jettySize=auto;html=1;exitX=1;exitY=0.25;exitDx=0;exitDy=0;strokeWidth=2;" edge="1" parent="1" source="BW_88uhByHTbwWjWVp8O-2">
          <mxGeometry relative="1" as="geometry">
            <mxPoint x="310" y="410" as="targetPoint" />
            <Array as="points">
              <mxPoint x="250" y="410" />
              <mxPoint x="310" y="410" />
            </Array>
          </mxGeometry>
        </mxCell>
        <mxCell id="BW_88uhByHTbwWjWVp8O-49" value="Total Energy In Microjoules" style="strokeWidth=2;html=1;shape=mxgraph.flowchart.display;whiteSpace=wrap;fillColor=#E6E6E6;" vertex="1" parent="1">
          <mxGeometry x="100" y="450" width="140" height="60" as="geometry" />
        </mxCell>
        <mxCell id="BW_88uhByHTbwWjWVp8O-52" style="edgeStyle=orthogonalEdgeStyle;rounded=0;orthogonalLoop=1;jettySize=auto;html=1;entryX=0.5;entryY=0;entryDx=0;entryDy=0;entryPerimeter=0;strokeWidth=2;" edge="1" parent="1" source="BW_88uhByHTbwWjWVp8O-2" target="BW_88uhByHTbwWjWVp8O-49">
          <mxGeometry relative="1" as="geometry" />
        </mxCell>
        <mxCell id="BW_88uhByHTbwWjWVp8O-53" value="&lt;ul&gt;&lt;li style=&quot;text-align: justify;&quot;&gt;Target Process Name&lt;/li&gt;&lt;li style=&quot;text-align: justify;&quot;&gt;Interval Scrape&lt;/li&gt;&lt;/ul&gt;" style="shape=parallelogram;html=1;strokeWidth=2;perimeter=parallelogramPerimeter;whiteSpace=wrap;rounded=1;arcSize=12;size=0.23;align=left;fillColor=#E6E6E6;" vertex="1" parent="1">
          <mxGeometry x="90" y="230" width="190" height="60" as="geometry" />
        </mxCell>
      </root>
    </mxGraphModel>
  </diagram>
</mxfile>
